<svg width="24" height="24" viewBox="0 0 24 24" fill="none" xmlns="http://www.w3.org/2000/svg">
<path d="M5.36842 0C6.07341 0 6.7715 0.138858 7.42283 0.408647C8.07415 0.678435 8.66597 1.07387 9.16447 1.57237C9.66297 2.07088 10.0584 2.66269 10.3282 3.31401C10.598 3.96534 10.7368 4.66343 10.7368 5.36842V10.7368H5.36842C3.94463 10.7368 2.57915 10.1712 1.57238 9.16447C0.565602 8.15769 2.2954e-06 6.79221 2.2954e-06 5.36842C2.2954e-06 3.94463 0.565602 2.57915 1.57238 1.57237C2.57915 0.5656 3.94463 0 5.36842 0ZM5.36842 13.2632H10.7368V18.6316C10.7368 19.6933 10.422 20.7313 9.8321 21.6141C9.24221 22.4969 8.40378 23.185 7.42283 23.5914C6.44188 23.9977 5.36247 24.104 4.3211 23.8968C3.27972 23.6897 2.32316 23.1784 1.57238 22.4276C0.821589 21.6768 0.310297 20.7203 0.103155 19.6789C-0.103987 18.6375 0.00232605 17.5581 0.408649 16.5772C0.814972 15.5962 1.50306 14.7578 2.38589 14.1679C3.26872 13.578 4.30665 13.2632 5.36842 13.2632ZM18.6316 0C20.0554 0 21.4209 0.5656 22.4276 1.57237C23.4344 2.57915 24 3.94463 24 5.36842C24 6.79221 23.4344 8.15769 22.4276 9.16447C21.4209 10.1712 20.0554 10.7368 18.6316 10.7368H13.2632V5.36842C13.2632 3.94463 13.8288 2.57915 14.8355 1.57237C15.8423 0.5656 17.2078 0 18.6316 0ZM13.2632 13.2632H18.6316C19.6934 13.2632 20.7313 13.578 21.6141 14.1679C22.4969 14.7578 23.185 15.5962 23.5914 16.5772C23.9977 17.5581 24.104 18.6375 23.8968 19.6789C23.6897 20.7203 23.1784 21.6768 22.4276 22.4276C21.6768 23.1784 20.7203 23.6897 19.6789 23.8968C18.6375 24.104 17.5581 23.9977 16.5772 23.5914C15.5962 23.185 14.7578 22.4969 14.1679 21.6141C13.578 20.7313 13.2632 19.6933 13.2632 18.6316V13.2632Z" fill="#FFDD5E"/>
</svg>
