<svg width="30" height="28" viewBox="0 0 30 28" fill="none" xmlns="http://www.w3.org/2000/svg">
<path d="M20.3 13.3H18.2V18.9L22.4 21.7L23.45 19.978L20.3 17.85V13.3ZM19.6 8.4L0 0V9.8L12.6 12.6L0 15.4V25.2L10.178 20.846C11.326 24.962 15.106 28 19.6 28C25.004 28 29.4 23.604 29.4 18.2C29.4 12.796 25.004 8.4 19.6 8.4ZM19.6 25.2C15.75 25.2 12.628 22.092 12.6 18.242V18.144C12.614 16.2957 13.3574 14.5277 14.6683 13.2246C15.9792 11.9216 17.7516 11.1889 19.6 11.186C23.464 11.186 26.6 14.322 26.6 18.186C26.6 22.05 23.464 25.2 19.6 25.2Z" fill="white"/>
</svg>
