<svg width="25" height="24" viewBox="0 0 25 24" fill="none" xmlns="http://www.w3.org/2000/svg">
<path d="M14.44 8.72416L18.05 6.01666V13.2367L14.44 10.5292V13.2367H6.01666V6.01666H14.44V8.72416ZM4.52814 16.8467H21.66V2.40667H2.40666V18.5133L4.52814 16.8467ZM5.36085 19.2533L0 23.465V1.20333C0 0.884189 0.126779 0.578117 0.352448 0.352448C0.578116 0.126779 0.884189 0 1.20333 0H22.8633C23.1825 0 23.4885 0.126779 23.7142 0.352448C23.9399 0.578117 24.0667 0.884189 24.0667 1.20333V18.05C24.0667 18.3691 23.9399 18.6752 23.7142 18.9009C23.4885 19.1265 23.1825 19.2533 22.8633 19.2533H5.36085Z" fill="white"/>
</svg>
