<svg width="24" height="30" viewBox="0 0 24 30" fill="none" xmlns="http://www.w3.org/2000/svg">
<path d="M15.6923 6.46154C15.2027 6.46154 14.7331 6.65604 14.3869 7.00226C14.0407 7.34849 13.8462 7.81806 13.8462 8.30769C13.8462 8.79732 14.0407 9.2669 14.3869 9.61312C14.7331 9.95934 15.2027 10.1538 15.6923 10.1538C16.1819 10.1538 16.6515 9.95934 16.9977 9.61312C17.344 9.2669 17.5385 8.79732 17.5385 8.30769C17.5385 7.81806 17.344 7.34849 16.9977 7.00226C16.6515 6.65604 16.1819 6.46154 15.6923 6.46154ZM6.46154 8.30769C6.46154 7.81806 6.65604 7.34849 7.00226 7.00226C7.34849 6.65604 7.81806 6.46154 8.30769 6.46154C8.79732 6.46154 9.2669 6.65604 9.61312 7.00226C9.95934 7.34849 10.1538 7.81806 10.1538 8.30769C10.1538 8.79732 9.95934 9.2669 9.61312 9.61312C9.2669 9.95934 8.79732 10.1538 8.30769 10.1538C7.81806 10.1538 7.34849 9.95934 7.00226 9.61312C6.65604 9.2669 6.46154 8.79732 6.46154 8.30769ZM12.9231 0.923077C12.9231 0.678262 12.8258 0.443474 12.6527 0.270363C12.4796 0.0972527 12.2448 0 12 0C11.7552 0 11.5204 0.0972527 11.3473 0.270363C11.1742 0.443474 11.0769 0.678262 11.0769 0.923077V1.84615H5.53846C4.80402 1.84615 4.09965 2.13791 3.58032 2.65724C3.06099 3.17657 2.76923 3.88094 2.76923 4.61538V12C2.76923 12.7344 3.06099 13.4388 3.58032 13.9581C4.09965 14.4775 4.80402 14.7692 5.53846 14.7692H18.4615C19.196 14.7692 19.9003 14.4775 20.4197 13.9581C20.939 13.4388 21.2308 12.7344 21.2308 12V4.61538C21.2308 3.88094 20.939 3.17657 20.4197 2.65724C19.9003 2.13791 19.196 1.84615 18.4615 1.84615H12.9231V0.923077ZM5.53846 3.69231H18.4615C18.7064 3.69231 18.9411 3.78956 19.1143 3.96267C19.2874 4.13578 19.3846 4.37057 19.3846 4.61538V12C19.3846 12.2448 19.2874 12.4796 19.1143 12.6527C18.9411 12.8258 18.7064 12.9231 18.4615 12.9231H5.53846C5.29365 12.9231 5.05886 12.8258 4.88575 12.6527C4.71264 12.4796 4.61538 12.2448 4.61538 12V4.61538C4.61538 4.37057 4.71264 4.13578 4.88575 3.96267C5.05886 3.78956 5.29365 3.69231 5.53846 3.69231ZM12.4615 29.5348C17.2911 29.4738 20.2062 28.4363 21.9175 26.8763C23.5329 25.3994 23.928 23.5957 23.9908 22.1575H24V20.8837C23.9995 19.9978 23.6472 19.1483 23.0206 18.5221C22.394 17.8958 21.5444 17.544 20.6585 17.544H14.7692V17.5385H9.23077V17.544H3.34154C1.49538 17.544 0 19.0394 0 20.8855V22.1575H0.00923098C0.0720002 23.5975 0.467077 25.4012 2.08246 26.8745C3.79385 28.4363 6.70892 29.4738 11.5385 29.5348V29.5385H12.4615V29.5348ZM3.34154 19.3902H20.6585C21.0551 19.3902 21.4354 19.5477 21.7159 19.8281C21.9963 20.1086 22.1538 20.4889 22.1538 20.8855V21.6923C22.1538 22.9662 21.912 24.3803 20.6732 25.512C19.4031 26.6695 16.9108 27.6923 12 27.6923C7.08923 27.6923 4.59692 26.6695 3.32677 25.512C2.08985 24.3803 1.84615 22.9643 1.84615 21.6923V20.8837C1.84664 20.4874 2.00441 20.1075 2.28479 19.8275C2.56518 19.5474 2.94526 19.3902 3.34154 19.3902Z" fill="white"/>
</svg>
